<svg width="44" height="44" viewBox="0 0 44 44" fill="none" xmlns="http://www.w3.org/2000/svg">
<path fill-rule="evenodd" clip-rule="evenodd" d="M41 6.40014C41.0006 7.55808 40.6875 8.69454 40.0938 9.68862C39.5002 10.6827 38.6482 11.4972 37.6286 12.0455C36.609 12.5939 35.4598 12.8555 34.3034 12.8025C33.147 12.7496 32.0265 12.3841 31.0612 11.7449L11.7472 31.064C12.2974 31.8972 12.6453 32.8476 12.763 33.8392C12.8807 34.8308 12.765 35.8362 12.4252 36.7751C12.0853 37.714 11.5307 38.5605 10.8057 39.2469C10.0806 39.9332 9.2051 40.4406 8.24913 40.7283C7.29316 41.016 6.28318 41.0762 5.29982 40.9041C4.31646 40.7319 3.38695 40.3322 2.58551 39.7368C1.78408 39.1414 1.1329 38.3668 0.683987 37.4749C0.23507 36.583 0.000840745 35.5984 9.90123e-07 34.5999C-0.000642646 33.4419 0.312525 32.3055 0.906189 31.3114C1.49985 30.3173 2.35181 29.5028 3.37143 28.9544C4.39104 28.4061 5.54019 28.1445 6.69661 28.1975C7.85304 28.2504 8.97349 28.6159 9.93877 29.2551L29.2528 9.936C28.7026 9.10279 28.3547 8.15244 28.237 7.16084C28.1193 6.16923 28.235 5.16383 28.5748 4.2249C28.9147 3.28597 29.4693 2.43953 30.1943 1.75314C30.9194 1.06675 31.7949 0.559435 32.7509 0.271694C33.7068 -0.0160473 34.7168 -0.0762435 35.7002 0.0959109C36.6835 0.268065 37.613 0.667802 38.4145 1.26321C39.2159 1.85861 39.8671 2.63319 40.316 3.52511C40.7649 4.41703 40.9992 5.40157 41 6.40014ZM38.4385 6.40014C38.4383 6.90502 38.3387 7.40493 38.1454 7.87131C37.9521 8.33769 37.6688 8.76143 37.3118 9.11831C36.9548 9.4752 36.531 9.75825 36.0646 9.9513C35.5982 10.1444 35.0983 10.2436 34.5936 10.2435C33.5742 10.2431 32.5967 9.83774 31.8761 9.1165C31.1556 8.39526 30.7509 7.41723 30.7513 6.39758C30.7516 5.37793 31.1569 4.40018 31.8779 3.67941C32.599 2.95865 33.5768 2.55392 34.5962 2.55426C35.6155 2.5546 36.593 2.95998 37.3136 3.68123C38.0342 4.40247 38.4388 5.38049 38.4385 6.40014ZM6.41922 38.4278C6.92397 38.4276 7.42374 38.328 7.89 38.1347C8.35626 37.9413 8.77988 37.658 9.13667 37.3008C9.49346 36.9437 9.77644 36.5198 9.96944 36.0533C10.1624 35.5868 10.2617 35.0868 10.2615 34.5819C10.2614 34.077 10.1618 33.5771 9.96846 33.1108C9.77515 32.6444 9.49189 32.2206 9.13486 31.8637C8.77783 31.5069 8.35402 31.2238 7.88763 31.0308C7.42124 30.8377 6.9214 30.7384 6.41666 30.7386C5.39727 30.7389 4.41978 31.1443 3.6992 31.8656C2.97863 32.5868 2.57401 33.5648 2.57435 34.5845C2.57469 35.6041 2.97996 36.5819 3.70102 37.3026C4.42207 38.0234 5.39984 38.4281 6.41922 38.4278Z" fill="#E12D2B"/>
</svg>
