<svg width="44" height="44" viewBox="0 0 44 44" fill="none" xmlns="http://www.w3.org/2000/svg">
<g clip-path="url(#clip0_16_110)">
<mask id="mask0_16_110" style="mask-type:luminance" maskUnits="userSpaceOnUse" x="0" y="0" width="44" height="44">
<path d="M0 0H44V44H0V0Z" fill="white"/>
</mask>
<g mask="url(#mask0_16_110)">
<path fill-rule="evenodd" clip-rule="evenodd" d="M11.858 11.7975C11.8865 11.4553 11.9984 11.1253 12.1839 10.8364C12.3694 10.5475 12.6229 10.3085 12.9223 10.1402C13.2216 9.97201 13.5575 9.87968 13.9008 9.87136C14.2441 9.86303 14.5841 9.93896 14.8912 10.0925C15.1347 10.2297 15.4035 10.3159 15.6813 10.3461C15.9591 10.3762 16.2401 10.3496 16.5073 10.2678C16.7745 10.186 17.0223 10.0508 17.2357 9.87031C17.449 9.68985 17.6235 9.46791 17.7484 9.21798C17.8734 8.96804 17.9463 8.69531 17.9626 8.41636C17.979 8.1374 17.9385 7.85802 17.8436 7.59519C17.7487 7.33236 17.6014 7.09155 17.4106 6.88739C17.2198 6.68322 16.9895 6.51995 16.7337 6.40749C15.824 5.95293 14.8167 5.72815 13.8 5.75281C12.7833 5.77747 11.7881 6.05081 10.9014 6.54895C10.0147 7.04709 9.26361 7.75485 8.71368 8.61035C8.16374 9.46585 7.83175 10.443 7.74673 11.4565L7.44148 15.125H4.81248C4.26547 15.125 3.74087 15.3423 3.35407 15.7291C2.96728 16.1159 2.74998 16.6405 2.74998 17.1875C2.74998 17.7345 2.96728 18.2591 3.35407 18.6459C3.74087 19.0327 4.26547 19.25 4.81248 19.25H7.09498L6.01698 32.2025C5.98851 32.5447 5.8766 32.8746 5.69107 33.1636C5.50553 33.4525 5.25202 33.6915 4.95271 33.8597C4.6534 34.028 4.31741 34.1203 3.97416 34.1286C3.63091 34.137 3.29085 34.061 2.98373 33.9075C2.49914 33.6945 1.95118 33.6759 1.45328 33.8557C0.955386 34.0354 0.545667 34.3998 0.308933 34.8732C0.0721976 35.3467 0.0265721 35.8931 0.181499 36.3992C0.336427 36.9054 0.680045 37.3326 1.14123 37.5925C2.051 38.0471 3.05827 38.2718 4.07499 38.2472C5.0917 38.2225 6.08689 37.9492 6.97355 37.451C7.86021 36.9529 8.61135 36.2451 9.16128 35.3896C9.71122 34.5341 10.0432 33.5569 10.1282 32.5435L11.2365 19.25H14.4375C14.7083 19.25 14.9765 19.1966 15.2268 19.093C15.477 18.9893 15.7044 18.8374 15.8959 18.6459C16.0874 18.4544 16.2393 18.227 16.343 17.9768C16.4466 17.7265 16.5 17.4583 16.5 17.1875C16.5 16.9166 16.4466 16.6484 16.343 16.3982C16.2393 16.148 16.0874 15.9206 15.8959 15.7291C15.7044 15.5376 15.477 15.3856 15.2268 15.282C14.9765 15.1783 14.7083 15.125 14.4375 15.125H11.5775L11.858 11.7975ZM28.3965 17.93C28.042 17.5247 27.543 17.2742 27.0062 17.2319C26.4695 17.1896 25.9374 17.3589 25.5238 17.7036C25.1101 18.0483 24.8477 18.5411 24.7925 19.0767C24.7373 19.6123 24.8938 20.1482 25.2285 20.57L27.566 23.375L25.2285 26.18C24.8938 26.6018 24.7373 27.1377 24.7925 27.6733C24.8477 28.2089 25.1101 28.7017 25.5238 29.0464C25.9374 29.3911 26.4695 29.5604 27.0062 29.5181C27.543 29.4758 28.042 29.2252 28.3965 28.82L30.25 26.598L32.1035 28.82C32.458 29.2252 32.9569 29.4758 33.4937 29.5181C34.0305 29.5604 34.5625 29.3911 34.9762 29.0464C35.3898 28.7017 35.6522 28.2089 35.7074 27.6733C35.7626 27.1377 35.6061 26.6018 35.2715 26.18L32.934 23.375L35.2715 20.57C35.6061 20.1482 35.7626 19.6123 35.7074 19.0767C35.6522 18.5411 35.3898 18.0483 34.9762 17.7036C34.5625 17.3589 34.0305 17.1896 33.4937 17.2319C32.9569 17.2742 32.458 17.5247 32.1035 17.93L30.25 20.152L28.3965 17.93ZM22.055 12.5125C22.565 12.7093 22.976 13.1005 23.1977 13.6001C23.4194 14.0998 23.4337 14.667 23.2375 15.1772L22.8387 16.2167C21.067 20.8235 21.067 25.9237 22.8387 30.5305L23.2375 31.57C23.434 32.0805 23.4197 32.6483 23.1977 33.1482C22.9757 33.6482 22.5641 34.0396 22.0536 34.2361C21.5431 34.4327 20.9753 34.4184 20.4754 34.1964C19.9754 33.9743 19.584 33.5628 19.3875 33.0522L18.9887 32.0127C16.8503 26.4528 16.8503 20.2972 18.9887 14.7372L19.3875 13.6977C19.4846 13.4446 19.6307 13.2132 19.8174 13.0166C20.0041 12.82 20.2277 12.6622 20.4755 12.5521C20.7233 12.442 20.9903 12.3818 21.2613 12.375C21.5323 12.3683 21.802 12.415 22.055 12.5125ZM38.4477 12.5125C38.7005 12.4149 38.9701 12.3681 39.2409 12.3747C39.5118 12.3813 39.7788 12.4412 40.0265 12.551C40.2742 12.6608 40.4979 12.8184 40.6847 13.0147C40.8715 13.211 41.0178 13.4421 41.1152 13.695L41.514 14.7372C43.6524 20.2972 43.6524 26.4528 41.514 32.0127L41.1125 33.0522C41.0184 33.3091 40.8741 33.5447 40.688 33.7453C40.502 33.9459 40.2779 34.1075 40.0288 34.2206C39.7797 34.3338 39.5106 34.3962 39.2372 34.4043C38.9637 34.4125 38.6914 34.3661 38.436 34.268C38.1806 34.1699 37.9473 34.0219 37.7497 33.8327C37.5521 33.6436 37.394 33.417 37.2848 33.1661C37.1756 32.9153 37.1174 32.6452 37.1136 32.3717C37.1097 32.0981 37.1603 31.8265 37.2625 31.5727L37.664 30.5305C39.4357 25.9237 39.4357 20.8235 37.664 16.2167L37.2625 15.1772C37.1649 14.9243 37.1182 14.6546 37.125 14.3836C37.1318 14.1125 37.192 13.8455 37.3021 13.5978C37.4122 13.35 37.57 13.1264 37.7666 12.9397C37.9632 12.753 38.1946 12.6069 38.4477 12.5097" fill="#E12D2B"/>
</g>
<path d="M23.5276 7.16761V8.10511H19.7095V7.16761H23.5276ZM28.3483 3.27273V12H27.2915V4.38068H27.2403L25.1097 5.79545V4.72159L27.2915 3.27273H28.3483Z" fill="#E12D2B"/>
</g>
<defs>
<clipPath id="clip0_16_110">
<rect width="44" height="44" fill="white"/>
</clipPath>
</defs>
</svg>
