<svg width="44" height="44" viewBox="0 0 44 44" fill="none" xmlns="http://www.w3.org/2000/svg">
<path d="M16.8355 11.2146C14.4632 10.7382 11.9999 11.0573 9.82732 12.1224C7.65469 13.1876 5.8939 14.9394 4.81765 17.1066C3.74139 19.2737 3.40974 21.7353 3.87404 24.11C4.33834 26.4847 5.5727 28.6401 7.38593 30.2423C9.19916 31.8445 11.4901 32.8042 13.9039 32.9726C16.3177 33.141 18.7197 32.5089 20.7379 31.174C22.7561 29.8392 24.2778 27.8761 25.0675 25.5889C25.8571 23.3017 25.8705 20.8179 25.1056 18.5223" stroke="#E12D2B" stroke-width="2" stroke-linecap="round" stroke-linejoin="round"/>
<path d="M27.1572 32.7857C29.532 33.2645 31.9985 32.946 34.1737 31.8795C36.349 30.813 38.1113 29.0583 39.1872 26.8876C40.263 24.717 40.5922 22.2519 40.1236 19.875C39.655 17.4982 38.4149 15.3425 36.5957 13.7426C34.7765 12.1427 32.48 11.1881 30.0628 11.027C27.6455 10.866 25.2427 11.5074 23.2273 12.8517C21.2119 14.1961 19.6967 16.1682 18.9168 18.4618C18.137 20.7555 18.1362 23.2425 18.9145 25.5367" stroke="#E12D2B" stroke-width="2" stroke-linecap="round" stroke-linejoin="round"/>
</svg>
