<svg width="64" height="64" viewBox="0 0 64 64" fill="none" xmlns="http://www.w3.org/2000/svg">
<path d="M52 12C50.2312 12.0052 48.5141 12.5971 47.1178 13.6829C45.7215 14.7687 44.7248 16.287 44.284 18H35.86C35.4871 15.0303 34.2883 12.225 32.3999 9.90288C30.5116 7.5808 28.0095 5.83524 25.1783 4.86473C22.347 3.89421 19.3003 3.73769 16.3845 4.41297C13.4687 5.08824 10.8009 6.56822 8.68456 8.68456C6.56822 10.8009 5.08824 13.4687 4.41297 16.3845C3.73769 19.3003 3.89421 22.347 4.86473 25.1783C5.83524 28.0095 7.5808 30.5116 9.90288 32.3999C12.225 34.2883 15.0303 35.4871 18 35.86V44.284C16.1147 44.7708 14.4716 45.9284 13.3788 47.54C12.286 49.1516 11.8184 51.1064 12.0637 53.038C12.3091 54.9696 13.2505 56.7454 14.7115 58.0326C16.1725 59.3198 18.0528 60.03 20 60.03C21.9471 60.03 23.8274 59.3198 25.2885 58.0326C26.7495 56.7454 27.6909 54.9696 27.9362 53.038C28.1816 51.1064 27.714 49.1516 26.6212 47.54C25.5284 45.9284 23.8853 44.7708 22 44.284V35.862C24.8431 35.5042 27.5368 34.3848 29.796 32.622L37.134 39.962C36.3991 41.1812 36.0072 42.5764 36 44C36 45.5822 36.4692 47.129 37.3482 48.4445C38.2273 49.7601 39.4767 50.7855 40.9385 51.391C42.4003 51.9965 44.0089 52.1549 45.5607 51.8463C47.1126 51.5376 48.538 50.7757 49.6568 49.6568C50.7757 48.538 51.5376 47.1126 51.8463 45.5607C52.1549 44.0089 51.9965 42.4003 51.391 40.9385C50.7855 39.4767 49.7601 38.2273 48.4445 37.3482C47.129 36.4692 45.5822 36 44 36C42.5764 36.0072 41.1812 36.3991 39.962 37.134L32.622 29.794C34.3852 27.5355 35.5053 24.8426 35.864 22H44.286C44.6626 23.4452 45.437 24.7558 46.5211 25.783C47.6052 26.8102 48.9556 27.5129 50.419 27.8111C51.8824 28.1094 53.4001 27.9913 54.7998 27.4703C56.1994 26.9493 57.4249 26.0463 58.3371 24.8637C59.2493 23.6812 59.8116 22.2666 59.9602 20.7805C60.1088 19.2945 59.8377 17.7965 59.1777 16.4568C58.5177 15.1171 57.4953 13.9893 56.2265 13.2015C54.9577 12.4136 53.4935 11.9974 52 12ZM24 52C24 52.7911 23.7654 53.5645 23.3259 54.2223C22.8863 54.8801 22.2616 55.3928 21.5307 55.6955C20.7998 55.9983 19.9955 56.0775 19.2196 55.9231C18.4437 55.7688 17.731 55.3878 17.1716 54.8284C16.6121 54.269 16.2312 53.5563 16.0768 52.7803C15.9225 52.0044 16.0017 51.2002 16.3045 50.4692C16.6072 49.7383 17.1199 49.1136 17.7777 48.6741C18.4355 48.2346 19.2089 48 20 48C21.0609 48 22.0783 48.4214 22.8284 49.1716C23.5786 49.9217 24 50.9391 24 52ZM20 32C17.6266 32 15.3065 31.2962 13.3331 29.9776C11.3598 28.659 9.82168 26.7849 8.91343 24.5922C8.00518 22.3995 7.76754 19.9867 8.23056 17.6589C8.69358 15.3311 9.83647 13.1929 11.5147 11.5147C13.1929 9.83647 15.3311 8.69358 17.6589 8.23056C19.9867 7.76754 22.3995 8.00518 24.5922 8.91343C26.7849 9.82168 28.659 11.3598 29.9776 13.3331C31.2962 15.3065 32 17.6266 32 20C31.9963 23.1814 30.7308 26.2315 28.4812 28.4812C26.2315 30.7308 23.1814 31.9963 20 32ZM48 44C48 44.7911 47.7654 45.5645 47.3259 46.2223C46.8863 46.8801 46.2616 47.3928 45.5307 47.6955C44.7998 47.9983 43.9955 48.0775 43.2196 47.9231C42.4437 47.7688 41.731 47.3878 41.1716 46.8284C40.6121 46.269 40.2312 45.5563 40.0768 44.7803C39.9225 44.0044 40.0017 43.2002 40.3045 42.4692C40.6072 41.7383 41.1199 41.1136 41.7777 40.6741C42.4355 40.2346 43.2089 40 44 40C45.0609 40 46.0783 40.4214 46.8284 41.1716C47.5786 41.9217 48 42.9391 48 44ZM52 24C51.2089 24 50.4355 23.7654 49.7777 23.3259C49.1199 22.8863 48.6072 22.2616 48.3045 21.5307C48.0017 20.7998 47.9225 19.9955 48.0768 19.2196C48.2312 18.4437 48.6121 17.731 49.1716 17.1716C49.731 16.6121 50.4437 16.2312 51.2196 16.0768C51.9955 15.9225 52.7998 16.0017 53.5307 16.3045C54.2616 16.6072 54.8863 17.1199 55.3259 17.7777C55.7654 18.4355 56 19.2089 56 20C56 21.0609 55.5786 22.0783 54.8284 22.8284C54.0783 23.5786 53.0609 24 52 24Z" fill="#E12D2B"/>
</svg>
