<svg width="64" height="64" viewBox="0 0 64 64" fill="none" xmlns="http://www.w3.org/2000/svg">
<path d="M40 50.6667C37.2267 50.6667 34.5067 50.0267 32 48.8534C29.4933 50.0267 26.7733 50.6667 24 50.6667C19.0493 50.6667 14.3014 48.7 10.8007 45.1994C7.3 41.6987 5.33334 36.9507 5.33334 32C5.33334 27.0493 7.3 22.3014 10.8007 18.8007C14.3014 15.3 19.0493 13.3334 24 13.3334C26.7733 13.3334 29.4933 13.9734 32 15.1467C34.5067 13.9734 37.2267 13.3334 40 13.3334C44.9507 13.3334 49.6987 15.3 53.1993 18.8007C56.7 22.3014 58.6667 27.0493 58.6667 32C58.6667 36.9507 56.7 41.6987 53.1993 45.1994C49.6987 48.7 44.9507 50.6667 40 50.6667ZM24 45.3334L26.6667 45.04C23.2533 41.5734 21.3333 36.88 21.3333 32C21.3333 27.12 23.2533 22.4267 26.6667 18.9334L24 18.6667C20.4638 18.6667 17.0724 20.0715 14.5719 22.5719C12.0714 25.0724 10.6667 28.4638 10.6667 32C10.6667 35.5363 12.0714 38.9276 14.5719 41.4281C17.0724 43.9286 20.4638 45.3334 24 45.3334ZM32 42.6667C35.36 40.1334 37.3333 36.1867 37.3333 32C37.3333 27.8134 35.36 23.8667 32 21.3334C28.64 23.8667 26.6667 27.8134 26.6667 32C26.6667 36.1867 28.64 40.1334 32 42.6667Z" fill="#E12D2B"/>
</svg>
